<?xml version="1.0" encoding="iso-8859-1"?>
<!-- Generator: Adobe Illustrator 19.0.0, SVG Export Plug-In . SVG Version: 6.00 Build 0)  -->
<svg xmlns="http://www.w3.org/2000/svg" xmlns:xlink="http://www.w3.org/1999/xlink" version="1.1" id="Layer_1" x="0px" y="0px" viewBox="0 0 512 512" style="enable-background:new 0 0 512 512;" xml:space="preserve">
<path style="fill:#88DCE5;" d="M128.968,239.177c0-52.597,33.619-95.814,79.712-121.563C106.639,97.892,8.148,158.478,8.148,241.561  c0,49.982,35.679,90.525,82.29,111.241c-16.437,18.734-31.169,29.457-31.339,29.579c-6.784,4.889-3.325,15.685,5.068,15.685  c58.697,0,110.777-10.707,155.101-31.847C163.649,339.533,128.968,291.746,128.968,239.177z"/>
<path style="fill:#74C4C4;" d="M184.225,347.94C82.2,347.94,9.381,255.357,40.582,164.755  c-58.08,60.652-36.255,149.776,49.856,188.047c-16.437,18.734-31.169,29.457-31.339,29.579c-6.784,4.889-3.325,15.685,5.068,15.685  c58.697,0,110.777-10.707,155.101-31.847c-11.08-5.316-21.313-11.483-30.623-18.345C187.176,347.915,185.705,347.94,184.225,347.94z  "/>
<path style="fill:#45CE73;" d="M447.666,133.19c-35.444-27.55-82.425-42.724-132.286-42.724  c-102.344,0-188.41,64.977-188.41,148.712c0,59.785,44.845,113.399,114.344,136.806c55.054,30.227,121.396,45.55,197.208,45.55  c4.378,0,8.258-2.823,9.603-6.991c1.347-4.168-0.148-8.726-3.699-11.288c-0.197-0.142-17.364-12.633-36.515-34.461  C517.657,320.012,536.343,202.128,447.666,133.19z"/>
<g>
	<circle style="fill:#F5F5F5;" cx="241.263" cy="245.254" r="17.479"/>
	<circle style="fill:#F5F5F5;" cx="312.14" cy="245.254" r="17.479"/>
	<circle style="fill:#F5F5F5;" cx="383.026" cy="245.254" r="17.479"/>
</g>
<path style="fill:#34B75C;" d="M468.31,326.128c-123.869,69.918-297.871-0.069-297.871-121.133  c0-31.928,12.792-62.093,35.296-86.839c-45.98,26.005-78.766,69.129-78.766,121.023c0,59.785,44.845,113.399,114.344,136.806  c55.054,30.227,121.396,45.55,197.208,45.55c4.378,0,8.258-2.823,9.603-6.991c1.347-4.168-0.148-8.726-3.699-11.288  c-0.197-0.142-17.364-12.633-36.515-34.461C431.706,358.214,452.297,343.669,468.31,326.128z"/>
<path d="M217.332,245.266c0,13.75,11.188,24.938,24.94,24.938c13.751,0,24.94-11.187,24.94-24.938  c0-13.751-11.188-24.94-24.94-24.94C228.52,220.326,217.332,231.515,217.332,245.266z M252.243,245.266  c0,5.496-4.472,9.968-9.97,9.968c-5.498,0-9.97-4.472-9.97-9.968c0-5.497,4.472-9.97,9.97-9.97  C247.771,235.296,252.243,239.769,252.243,245.266z"/>
<path d="M288.121,245.266c0,13.75,11.189,24.938,24.942,24.938c13.75,0,24.938-11.187,24.938-24.938  c0-13.751-11.187-24.94-24.938-24.94C299.311,220.326,288.121,231.515,288.121,245.266z M323.032,245.266  c0,5.496-4.471,9.968-9.968,9.968c-5.499,0-9.972-4.472-9.972-9.968c0-5.497,4.473-9.97,9.972-9.97  C318.56,235.296,323.032,239.769,323.032,245.266z"/>
<path d="M358.91,245.266c0,13.75,11.188,24.938,24.94,24.938s24.94-11.187,24.94-24.938c0-13.751-11.188-24.94-24.94-24.94  S358.91,231.515,358.91,245.266z M393.82,245.266c0,5.496-4.472,9.968-9.97,9.968s-9.97-4.472-9.97-9.968  c0-5.497,4.472-9.97,9.97-9.97S393.82,239.769,393.82,245.266z"/>
<path d="M468.635,141.118c-2.944-2.899-7.683-2.864-10.584,0.084c-2.9,2.946-2.862,7.685,0.084,10.585  c68.273,67.202,44.036,167.112-52.478,210.011c-4.607,2.048-5.912,7.986-2.587,11.776c19.861,22.638,37.551,35.432,37.712,35.548  c2.034,1.467,0.997,4.7-1.517,4.7c-124.288,0-187.386-42.686-194.549-45.096c-121.363-40.874-148.947-168.893-44.709-237.478  c69.697-45.818,172.182-43.722,238.747,4.242c3.354,2.415,8.032,1.659,10.449-1.698c2.417-3.353,1.657-8.032-1.697-10.448  c-35.92-25.883-82.52-40.137-131.214-40.137c-39.711,0-77.687,9.369-109.828,26.759C100.733,90.994,0,154.491,0,241.581  c0,49.54,32.738,90.503,77.323,113.473c-12.821,13.382-23.228,21.007-23.332,21.082c-12.668,9.129-6.19,29.222,9.436,29.222  c33.509,0,65.288-3.489,94.453-10.37c4.023-0.949,6.515-4.98,5.566-9.004c-0.948-4.023-4.982-6.516-9.004-5.566  c-28.039,6.616-58.661,9.97-91.014,9.97c-1.121,0-1.608-1.441-0.671-2.118c0.631-0.456,15.63-11.399,32.533-30.665  c3.325-3.789,2.022-9.726-2.587-11.776C48.997,326.405,14.97,288.508,14.97,241.581c0-71.876,80.194-127.216,171.473-119.206  c-94.518,66.845-85.079,185.388,14.735,243.113c-7.36,3.032-14.938,5.797-22.654,8.265c-3.937,1.259-6.109,5.471-4.849,9.409  c1.259,3.938,5.47,6.111,9.409,4.849c12.153-3.886,23.98-8.486,35.218-13.676c6.729,3.092,13.734,5.893,21.006,8.365  c55.975,30.584,123.249,46.093,199.958,46.093c17.018,0,24.047-21.873,10.281-31.805c-0.146-0.105-12.939-9.46-28.511-25.92  C520.171,320.995,541.711,213.048,468.635,141.118z"/>
<g>
</g>
<g>
</g>
<g>
</g>
<g>
</g>
<g>
</g>
<g>
</g>
<g>
</g>
<g>
</g>
<g>
</g>
<g>
</g>
<g>
</g>
<g>
</g>
<g>
</g>
<g>
</g>
<g>
</g>
</svg>
